<svg height="1870" width="720" xmlns="http://www.w3.org/2000/svg">
<rect height="1870" fill="#555" width="720"></rect>
<text fill="#7f7" font-family="Courier New" font-size="12" xml:space="preserve">
<tspan x="10" y="26">81 megabytes installed</tspan>
<tspan x="10" y="42"></tspan>
<tspan x="10" y="58">node_modules</tspan>
<tspan x="10" y="74">└─┬ pa11y@4.10.0 </tspan>
<tspan x="10" y="90">  ├─┬ async@2.3.0 </tspan>
<tspan x="10" y="106">  │ └── lodash@4.17.4 </tspan>
<tspan x="10" y="122">  ├─┬ bfj@2.1.2 </tspan>
<tspan x="10" y="138">  │ └── check-types@7.0.1 </tspan>
<tspan x="10" y="154">  ├─┬ chalk@1.1.3 </tspan>
<tspan x="10" y="170">  │ ├── ansi-styles@2.2.1 </tspan>
<tspan x="10" y="186">  │ ├── escape-string-regexp@1.0.5 </tspan>
<tspan x="10" y="202">  │ ├─┬ has-ansi@2.0.0 </tspan>
<tspan x="10" y="218">  │ │ └── ansi-regex@2.1.1 </tspan>
<tspan x="10" y="234">  │ ├── strip-ansi@3.0.1 </tspan>
<tspan x="10" y="250">  │ └── supports-color@2.0.0 </tspan>
<tspan x="10" y="266">  ├─┬ commander@2.9.0 </tspan>
<tspan x="10" y="282">  │ └── graceful-readlink@1.0.1 </tspan>
<tspan x="10" y="298">  ├── lower-case@1.1.4 </tspan>
<tspan x="10" y="314">  ├─┬ node.extend@1.1.6 </tspan>
<tspan x="10" y="330">  │ └── is@3.2.1 </tspan>
<tspan x="10" y="346">  ├─┬ once@1.4.0 </tspan>
<tspan x="10" y="362">  │ └── wrappy@1.0.2 </tspan>
<tspan x="10" y="378">  ├─┬ phantomjs-prebuilt@2.1.14 </tspan>
<tspan x="10" y="394">  │ ├── es6-promise@4.0.5 </tspan>
<tspan x="10" y="410">  │ ├─┬ extract-zip@1.5.0 </tspan>
<tspan x="10" y="426">  │ │ ├─┬ concat-stream@1.5.0 </tspan>
<tspan x="10" y="442">  │ │ │ ├── inherits@2.0.3 </tspan>
<tspan x="10" y="458">  │ │ │ ├─┬ readable-stream@2.0.6 </tspan>
<tspan x="10" y="474">  │ │ │ │ ├── core-util-is@1.0.2 </tspan>
<tspan x="10" y="490">  │ │ │ │ ├── isarray@1.0.0 </tspan>
<tspan x="10" y="506">  │ │ │ │ ├── process-nextick-args@1.0.7 </tspan>
<tspan x="10" y="522">  │ │ │ │ ├── string_decoder@0.10.31 </tspan>
<tspan x="10" y="538">  │ │ │ │ └── util-deprecate@1.0.2 </tspan>
<tspan x="10" y="554">  │ │ │ └── typedarray@0.0.6 </tspan>
<tspan x="10" y="570">  │ │ ├── debug@0.7.4 </tspan>
<tspan x="10" y="586">  │ │ ├─┬ mkdirp@0.5.0 </tspan>
<tspan x="10" y="602">  │ │ │ └── minimist@0.0.8 </tspan>
<tspan x="10" y="618">  │ │ └─┬ yauzl@2.4.1 </tspan>
<tspan x="10" y="634">  │ │   └─┬ fd-slicer@1.0.1 </tspan>
<tspan x="10" y="650">  │ │     └── pend@1.2.0 </tspan>
<tspan x="10" y="666">  │ ├─┬ fs-extra@1.0.0 </tspan>
<tspan x="10" y="682">  │ │ ├── graceful-fs@4.1.11 </tspan>
<tspan x="10" y="698">  │ │ ├── jsonfile@2.4.0 </tspan>
<tspan x="10" y="714">  │ │ └── klaw@1.3.1 </tspan>
<tspan x="10" y="730">  │ ├─┬ hasha@2.2.0 </tspan>
<tspan x="10" y="746">  │ │ ├── is-stream@1.1.0 </tspan>
<tspan x="10" y="762">  │ │ └─┬ pinkie-promise@2.0.1 </tspan>
<tspan x="10" y="778">  │ │   └── pinkie@2.0.4 </tspan>
<tspan x="10" y="794">  │ ├── kew@0.7.0 </tspan>
<tspan x="10" y="810">  │ ├── progress@1.1.8 </tspan>
<tspan x="10" y="826">  │ ├─┬ request@2.79.0 </tspan>
<tspan x="10" y="842">  │ │ ├── aws-sign2@0.6.0 </tspan>
<tspan x="10" y="858">  │ │ ├── aws4@1.6.0 </tspan>
<tspan x="10" y="874">  │ │ ├── caseless@0.11.0 </tspan>
<tspan x="10" y="890">  │ │ ├─┬ combined-stream@1.0.5 </tspan>
<tspan x="10" y="906">  │ │ │ └── delayed-stream@1.0.0 </tspan>
<tspan x="10" y="922">  │ │ ├── extend@3.0.0 </tspan>
<tspan x="10" y="938">  │ │ ├── forever-agent@0.6.1 </tspan>
<tspan x="10" y="954">  │ │ ├─┬ form-data@2.1.4 </tspan>
<tspan x="10" y="970">  │ │ │ └── asynckit@0.4.0 </tspan>
<tspan x="10" y="986">  │ │ ├─┬ har-validator@2.0.6 </tspan>
<tspan x="10" y="1002">  │ │ │ └─┬ is-my-json-valid@2.16.0 </tspan>
<tspan x="10" y="1018">  │ │ │   ├── generate-function@2.0.0 </tspan>
<tspan x="10" y="1034">  │ │ │   ├─┬ generate-object-property@1.2.0 </tspan>
<tspan x="10" y="1050">  │ │ │   │ └── is-property@1.0.2 </tspan>
<tspan x="10" y="1066">  │ │ │   ├── jsonpointer@4.0.1 </tspan>
<tspan x="10" y="1082">  │ │ │   └── xtend@4.0.1 </tspan>
<tspan x="10" y="1098">  │ │ ├─┬ hawk@3.1.3 </tspan>
<tspan x="10" y="1114">  │ │ │ ├── boom@2.10.1 </tspan>
<tspan x="10" y="1130">  │ │ │ ├── cryptiles@2.0.5 </tspan>
<tspan x="10" y="1146">  │ │ │ ├── hoek@2.16.3 </tspan>
<tspan x="10" y="1162">  │ │ │ └── sntp@1.0.9 </tspan>
<tspan x="10" y="1178">  │ │ ├─┬ http-signature@1.1.1 </tspan>
<tspan x="10" y="1194">  │ │ │ ├── assert-plus@0.2.0 </tspan>
<tspan x="10" y="1210">  │ │ │ ├─┬ jsprim@1.4.0 </tspan>
<tspan x="10" y="1226">  │ │ │ │ ├── assert-plus@1.0.0 </tspan>
<tspan x="10" y="1242">  │ │ │ │ ├── extsprintf@1.0.2 </tspan>
<tspan x="10" y="1258">  │ │ │ │ ├── json-schema@0.2.3 </tspan>
<tspan x="10" y="1274">  │ │ │ │ └── verror@1.3.6 </tspan>
<tspan x="10" y="1290">  │ │ │ └─┬ sshpk@1.13.0 </tspan>
<tspan x="10" y="1306">  │ │ │   ├── asn1@0.2.3 </tspan>
<tspan x="10" y="1322">  │ │ │   ├── assert-plus@1.0.0 </tspan>
<tspan x="10" y="1338">  │ │ │   ├── bcrypt-pbkdf@1.0.1 </tspan>
<tspan x="10" y="1354">  │ │ │   ├─┬ dashdash@1.14.1 </tspan>
<tspan x="10" y="1370">  │ │ │   │ └── assert-plus@1.0.0 </tspan>
<tspan x="10" y="1386">  │ │ │   ├── ecc-jsbn@0.1.1 </tspan>
<tspan x="10" y="1402">  │ │ │   ├─┬ getpass@0.1.6 </tspan>
<tspan x="10" y="1418">  │ │ │   │ └── assert-plus@1.0.0 </tspan>
<tspan x="10" y="1434">  │ │ │   ├── jodid25519@1.0.2 </tspan>
<tspan x="10" y="1450">  │ │ │   ├── jsbn@0.1.1 </tspan>
<tspan x="10" y="1466">  │ │ │   └── tweetnacl@0.14.5 </tspan>
<tspan x="10" y="1482">  │ │ ├── is-typedarray@1.0.0 </tspan>
<tspan x="10" y="1498">  │ │ ├── isstream@0.1.2 </tspan>
<tspan x="10" y="1514">  │ │ ├── json-stringify-safe@5.0.1 </tspan>
<tspan x="10" y="1530">  │ │ ├─┬ mime-types@2.1.15 </tspan>
<tspan x="10" y="1546">  │ │ │ └── mime-db@1.27.0 </tspan>
<tspan x="10" y="1562">  │ │ ├── oauth-sign@0.8.2 </tspan>
<tspan x="10" y="1578">  │ │ ├── qs@6.3.2 </tspan>
<tspan x="10" y="1594">  │ │ ├── stringstream@0.0.5 </tspan>
<tspan x="10" y="1610">  │ │ ├─┬ tough-cookie@2.3.2 </tspan>
<tspan x="10" y="1626">  │ │ │ └── punycode@1.4.1 </tspan>
<tspan x="10" y="1642">  │ │ ├── tunnel-agent@0.4.3 </tspan>
<tspan x="10" y="1658">  │ │ └── uuid@3.0.1 </tspan>
<tspan x="10" y="1674">  │ ├─┬ request-progress@2.0.1 </tspan>
<tspan x="10" y="1690">  │ │ └── throttleit@1.0.0 </tspan>
<tspan x="10" y="1706">  │ └─┬ which@1.2.14 </tspan>
<tspan x="10" y="1722">  │   └── isexe@2.0.0 </tspan>
<tspan x="10" y="1738">  └─┬ truffler@3.0.1 </tspan>
<tspan x="10" y="1754">    ├── async@2.1.5 </tspan>
<tspan x="10" y="1770">    ├── freeport@1.0.5 </tspan>
<tspan x="10" y="1786">    ├─┬ hasbin@1.2.3 </tspan>
<tspan x="10" y="1802">    │ └── async@1.5.2 </tspan>
<tspan x="10" y="1818">    └─┬ node-phantom-simple@2.2.4 </tspan>
<tspan x="10" y="1834">      └─┬ debug@2.6.4 </tspan>
<tspan x="10" y="1850">        └── ms@0.7.3</tspan>
</text>
</svg>
